<svg id="Capa_1" data-name="Capa 1" xmlns="http://www.w3.org/2000/svg" viewBox="0 0 486.96 168.2"><defs><style>.cls-1{fill:#fff;}.cls-1,.cls-2,.cls-3,.cls-5,.cls-6,.cls-7,.cls-8,.cls-9{stroke:#000;stroke-miterlimit:10;}.cls-2,.cls-3,.cls-5,.cls-6,.cls-7,.cls-8,.cls-9{fill:none;}.cls-2{stroke-width:6px;}.cls-3{stroke-width:4px;}.cls-4{font-size:95px;}.cls-10,.cls-4{font-family:CommercialScriptBT-Regular, CommercialScript BT;}.cls-5{stroke-width:10px;}.cls-6{stroke-width:7px;}.cls-7{stroke-width:15px;}.cls-8{stroke-width:3px;}.cls-10{opacity:0.33;font-size:239px;}</style></defs><title>Mesa de trabajo 1</title><ellipse class="cls-1" cx="118.34" cy="69.06" rx="50.52" ry="54.38"/><circle class="cls-1" cx="119.16" cy="69.65" r="33.92"/><line class="cls-2" x1="112.21" y1="160.76" x2="112.21" y2="30.26"/><line class="cls-3" x1="130.05" y1="92.83" x2="130.05" y2="44.33"/><line class="cls-2" x1="129.05" y1="86.83" x2="129.65" y2="102.58"/><line class="cls-2" x1="112.21" y1="100.62" x2="132.32" y2="101.73"/><line class="cls-2" x1="112.21" y1="30.26" x2="112.21" y2="27.69"/><text class="cls-4" transform="translate(160.32 158)">istorante</text><line class="cls-5" x1="130.65" y1="99.58" x2="168.07" y2="151.4"/><path class="cls-5" d="M140.63,85.91c3.67,5.29.64,13.72-6.76,18.85"/><path class="cls-5" d="M138.18,102.3c-5.73,6.14-16,5.87-22.93-.61"/><line class="cls-6" x1="142.63" y1="85.91" x2="113.27" y2="52.04"/><line class="cls-6" x1="127.72" y1="103.21" x2="141.57" y2="88.26"/><line class="cls-6" x1="133.91" y1="92.04" x2="108.38" y2="62.58"/><line class="cls-2" x1="128.72" y1="97.58" x2="100.14" y2="73.15"/><line class="cls-2" x1="121.1" y1="104.82" x2="95.05" y2="82.55"/><line class="cls-7" x1="120.7" y1="38.33" x2="122.15" y2="102.46"/><line class="cls-8" x1="117.43" y1="160.76" x2="117.43" y2="106.73"/><path class="cls-2" d="M129,44.64c.36-9.42-8.49-17.39-19.8-17.82"/><path d="M120.29,37.67a24.83,24.83,0,0,1-3.2-7.4l-2.75,1.16a20,20,0,0,0,4.3,4.83c.78.68,1.56,1.35,2.32,2.05.39.37.77.75,1.13,1.14.17.18.33.36.48.55s.19.23.28.34l.12.16,2-2q-4.81-2.67-9.57-5.46a1.5,1.5,0,0,0-1.66.12,1.55,1.55,0,0,0-.54,1.57,27.9,27.9,0,0,0,2,6.36,1.51,1.51,0,0,0,2.35.3,8.6,8.6,0,0,1,1-1c.36-.31-.1.07.11-.09l.31-.21c.19-.13.39-.24.59-.35l.26-.13s.34-.16.13-.07c.2-.08.42-.16.63-.22s.44-.13.66-.18l.29,0c.47-.09-.28,0,.2,0a1.5,1.5,0,0,0,0-3,9.41,9.41,0,0,0-6.26,3.16l2.36.3a25.85,25.85,0,0,1-1.67-5.63l-2.2,1.69q4.74,2.79,9.56,5.46a1.54,1.54,0,0,0,1.82-.23,1.52,1.52,0,0,0,.24-1.82A28.78,28.78,0,0,0,121,34.33c-.78-.67-1.55-1.35-2.26-2.09-.37-.38-.72-.78-1-1.19.13.16,0,0-.07-.1l-.21-.3c-.17-.24-.32-.48-.47-.74a1.51,1.51,0,0,0-2.74,1.16,28.71,28.71,0,0,0,3.51,8.12,1.5,1.5,0,1,0,2.59-1.52Z"/><path d="M117.64,123.33V116.9a1.5,1.5,0,0,0-3,0v6.43a1.5,1.5,0,0,0,3,0Z"/><path d="M117.64,115.94v-8.36a1.5,1.5,0,0,0-3,0v8.36a1.5,1.5,0,0,0,3,0Z"/><line class="cls-9" x1="115.79" y1="123.32" x2="115.79" y2="160.77"/><text class="cls-10" transform="translate(-8.23 158.35)">IL</text></svg>