<svg id="Capa_1" data-name="Capa 1" xmlns="http://www.w3.org/2000/svg" viewBox="0 0 571.62 472.08"><defs><style>.cls-1{fill:#fff;}.cls-1,.cls-2,.cls-3,.cls-5,.cls-6,.cls-7,.cls-8,.cls-9{stroke:#000;stroke-miterlimit:10;}.cls-2,.cls-3,.cls-5,.cls-6,.cls-7,.cls-8,.cls-9{fill:none;}.cls-2{stroke-width:6px;}.cls-3{stroke-width:4px;}.cls-4{font-size:95px;}.cls-10,.cls-4{font-family:CommercialScriptBT-Regular, CommercialScript BT;}.cls-5{stroke-width:10px;}.cls-6{stroke-width:7px;}.cls-7{stroke-width:15px;}.cls-8{stroke-width:3px;}.cls-10{opacity:0.33;font-size:239px;}</style></defs><title>pimod</title><ellipse class="cls-1" cx="126.57" cy="104.54" rx="50.52" ry="54.38"/><circle class="cls-1" cx="127.39" cy="105.13" r="33.92"/><text x="-154.56" y="-249.19"/><line class="cls-2" x1="120.44" y1="196.24" x2="120.44" y2="65.74"/><line class="cls-3" x1="138.28" y1="128.31" x2="138.28" y2="79.81"/><line class="cls-2" x1="137.28" y1="122.31" x2="137.88" y2="138.06"/><line class="cls-2" x1="120.44" y1="136.09" x2="140.55" y2="137.21"/><line class="cls-2" x1="120.44" y1="65.74" x2="120.44" y2="63.17"/><text class="cls-4" transform="translate(168.55 193.48)">istorante</text><line class="cls-5" x1="138.88" y1="135.06" x2="176.3" y2="186.88"/><path class="cls-5" d="M303.41,370.58c3.67,5.29.65,13.72-6.75,18.85" transform="translate(-154.56 -249.19)"/><path class="cls-5" d="M301,387c-5.74,6.15-16,5.88-22.93-.6" transform="translate(-154.56 -249.19)"/><line class="cls-6" x1="150.86" y1="121.39" x2="121.5" y2="87.52"/><line class="cls-6" x1="135.94" y1="138.69" x2="149.8" y2="123.74"/><line class="cls-6" x1="142.14" y1="127.52" x2="116.61" y2="98.06"/><line class="cls-2" x1="136.94" y1="133.06" x2="108.37" y2="108.63"/><line class="cls-2" x1="129.33" y1="140.3" x2="103.28" y2="118.03"/><line class="cls-7" x1="128.93" y1="73.81" x2="130.37" y2="137.94"/><line class="cls-8" x1="125.66" y1="196.24" x2="125.66" y2="142.21"/><path class="cls-2" d="M291.82,329.31c.36-9.42-8.5-17.39-19.8-17.82" transform="translate(-154.56 -249.19)"/><path d="M283.08,322.34a25.11,25.11,0,0,1-3.21-7.4l-2.74,1.16a20.19,20.19,0,0,0,4.3,4.83c.77.68,1.56,1.35,2.31,2.05q.58.56,1.14,1.14l.48.55.27.34.12.16,2.05-2.05q-4.82-2.67-9.56-5.46a1.52,1.52,0,0,0-1.67.12,1.55,1.55,0,0,0-.54,1.57,28.68,28.68,0,0,0,2,6.35,1.51,1.51,0,0,0,2.36.31,7.18,7.18,0,0,1,1-.95c.36-.31-.11.07.11-.09l.31-.21c.19-.13.38-.24.58-.35l.27-.13s.33-.16.12-.07c.21-.08.42-.16.64-.22s.43-.13.65-.18l.3-.05c.47-.09-.28,0,.19,0a1.53,1.53,0,0,0,1.5-1.5,1.51,1.51,0,0,0-1.5-1.5,9.41,9.41,0,0,0-6.25,3.16l2.35.3a25.84,25.84,0,0,1-1.66-5.63l-2.21,1.69q4.75,2.79,9.57,5.46a1.56,1.56,0,0,0,1.82-.23,1.5,1.5,0,0,0,.23-1.82,28.38,28.38,0,0,0-4.57-4.66c-.77-.67-1.54-1.35-2.25-2.09-.37-.38-.73-.78-1.06-1.19.13.16,0,0-.07-.1l-.21-.3c-.16-.24-.31-.49-.46-.74a1.51,1.51,0,0,0-2.74,1.16,28.69,28.69,0,0,0,3.5,8.12,1.55,1.55,0,0,0,2.06.54,1.53,1.53,0,0,0,.54-2.06Z" transform="translate(-154.56 -249.19)"/><path d="M280.43,408v-6.43a1.5,1.5,0,0,0-3,0V408a1.5,1.5,0,0,0,3,0Z" transform="translate(-154.56 -249.19)"/><path d="M280.43,400.61v-8.36a1.5,1.5,0,0,0-3,0v8.36a1.5,1.5,0,0,0,3,0Z" transform="translate(-154.56 -249.19)"/><line class="cls-9" x1="124.01" y1="158.8" x2="124.01" y2="196.25"/><text class="cls-10" transform="translate(0 193.83)">IL</text></svg>